<svg xmlns="http://www.w3.org/2000/svg" width="480" height="480" viewBox="0 0 480 480" fill="none">
  <rect width="480" height="480" rx="32" fill="#0B0B0B"/>
  <rect x="40" y="40" width="400" height="400" rx="20" fill="#FAFAFA"/>
  <rect x="72" y="72" width="96" height="96" fill="#111827"/>
  <rect x="88" y="88" width="64" height="64" fill="#FAFAFA"/>
  <rect x="104" y="104" width="32" height="32" fill="#111827"/>
  <rect x="312" y="72" width="96" height="96" fill="#111827"/>
  <rect x="328" y="88" width="64" height="64" fill="#FAFAFA"/>
  <rect x="344" y="104" width="32" height="32" fill="#111827"/>
  <rect x="72" y="312" width="96" height="96" fill="#111827"/>
  <rect x="88" y="328" width="64" height="64" fill="#FAFAFA"/>
  <rect x="104" y="344" width="32" height="32" fill="#111827"/>
  <rect x="216" y="72" width="24" height="24" fill="#111827"/>
  <rect x="264" y="72" width="24" height="24" fill="#111827"/>
  <rect x="216" y="120" width="24" height="24" fill="#111827"/>
  <rect x="240" y="144" width="24" height="24" fill="#111827"/>
  <rect x="288" y="120" width="24" height="24" fill="#111827"/>
  <rect x="216" y="216" width="24" height="24" fill="#111827"/>
  <rect x="240" y="240" width="24" height="24" fill="#111827"/>
  <rect x="288" y="216" width="24" height="24" fill="#111827"/>
  <rect x="336" y="216" width="24" height="24" fill="#111827"/>
  <rect x="192" y="288" width="24" height="24" fill="#111827"/>
  <rect x="240" y="288" width="24" height="24" fill="#111827"/>
  <rect x="288" y="288" width="24" height="24" fill="#111827"/>
  <rect x="216" y="336" width="24" height="24" fill="#111827"/>
  <rect x="264" y="336" width="24" height="24" fill="#111827"/>
  <rect x="312" y="336" width="24" height="24" fill="#111827"/>
  <rect x="360" y="288" width="24" height="24" fill="#111827"/>
  <rect x="360" y="336" width="24" height="24" fill="#111827"/>
  <text x="240" y="454" text-anchor="middle" fill="#F43F5E" font-family="Arial, sans-serif" font-size="22" font-weight="700">Temporary QR Placeholder</text>
</svg>
